<?xml version="1.0" encoding="UTF-8" standalone="no"?>
<!--
  ~ SPDX-FileCopyrightText: (C) TOSHIBA CORPORATION, 2023.
  ~ SPDX-FileCopyrightText: (C) Toshiba Software Development (Vietnam) Co., Ltd., 2023.
  ~ SPDX-FileCopyrightText: (C) 2023 Siemens AG
  ~ SPDX-License-Identifier: EPL-2.0
  ~ License-Filename: LICENSE
-->
<!-- Created with Inkscape (http://www.inkscape.org/) -->

<svg
   viewBox="0 0 634.57513 202.94498"
   version="1.1"
   id="svg830"
   inkscapeVersion="1.1.2 (0a00cf5339, 2022-02-04)"
   sodipodiDocname="sw360_full_logo.svg"
   xmlnsInkscape="http://www.inkscape.org/namespaces/inkscape"
   xmlnsSodipodi="http://sodipodi.sourceforge.net/DTD/sodipodi-0.dtd"
   xmlns="http://www.w3.org/2000/svg"
   xmlnsSvg="http://www.w3.org/2000/svg">
  <sodipodiNamedview
     id="namedview832"
     pagecolor="#505050"
     bordercolor="#eeeeee"
     borderopacity="1"
     inkscapePageshadow="0"
     inkscapePageopacity="0"
     inkscapePagecheckerboard="0"
     inkscapeDocument-units="mm"
     showgrid="false"
     showguides="true"
     inkscapeGuide-bbox="true"
     fit-margin-top="0"
     fit-margin-left="0"
     fit-margin-right="0"
     fit-margin-bottom="0"
     inkscapeZoom="0.52025814"
     inkscapeCx="1229.1975"
     inkscapeCy="402.68471"
     inkscapeWindow-width="3440"
     inkscapeWindow-height="1367"
     inkscapeWindow-x="0"
     inkscapeWindow-y="0"
     inkscapeWindow-maximized="1"
     inkscapeCurrent-layer="layer1">
    <sodipodiGuide
       position="56.537804,145.64258"
       orientation="0,-1"
       id="guide15260" />
    <sodipodiGuide
       position="238.01927,19.404216"
       orientation="0,-1"
       id="guide15262" />
  </sodipodiNamedview>
  <defs
     id="defs827" />
  <g
     inkscapeLabel="Layer 1"
     inkscapeGroupmode="layer"
     id="layer1"
     transform="translate(753.67751,110.61872)">
    <g
       id="g945">
      <g
         id="g6420"
         transform="translate(-693.20447,-111.97594)">
        <path
           style="fill:#ffffff;stroke:none;stroke-width:0.264583px;stroke-linecap:butt;stroke-linejoin:miter;stroke-opacity:1"
           d="m 1.8459941,62.242935 4.4223516,-20.705162 72.6669963,-0.452154 12.238303,12.63334 38.161595,-0.378038 1.24028,2.021144 0.82,1.733729 0.97536,2.062235 20.51378,4.031117 -1.87991,113.157204 -137.793099,1.98596 -27.941636,-14.37987 -0.742992,-99.702466 z"
           id="path2237"
           sodipodiNodetypes="cccccccccccccc" />
        <path
           style="fill:#f49523;stroke-width:0.282222"
           d="m 33.176975,204.12248 c -7.85984,-0.64495 -16.91964,-2.50948 -24.55334,-5.05317 -13.466587,-4.4873 -27.073941,-12.65571 -37.102367,-22.27232 -9.381841,-8.99658 -15.949067,-17.81888 -21.479107,-28.85466 -5.032511,-10.04292 -8.224178,-20.52836 -9.866784,-32.41493 -0.623537,-4.51217 -0.85969,-16.167151 -0.429987,-21.221461 2.090161,-24.585182 12.781181,-47.16505 30.481452,-64.378064 C -13.741233,14.337282 6.612455,4.6634107 29.225865,1.8863339 c 6.19217,-0.7604402 18.04619,-0.6909356 24.27111,0.1423106 26.95543,3.6081602 50.054515,16.6389655 66.868135,37.7220865 4.1342,5.183999 9.33375,13.234337 8.85621,13.711872 -0.1574,0.157406 -9.29432,0.232751 -22.9516,0.189263 L 83.646853,53.768735 82.857715,51.46295 c -1.229209,-3.591627 -2.90963,-5.525475 -6.01095,-6.897024 -3.05957,-1.353092 -4.0069,-1.428747 -17.84646,-1.425276 -14.15144,0.0036 -15.03808,0.08612 -18.21599,1.696489 -3.90308,1.977842 -6.04782,5.9436 -6.25438,11.5647 l -0.083,2.257778 60.97243,0.141111 c 57.580795,0.133262 61.014585,0.168732 61.730245,0.637658 1.74546,1.143703 1.62705,-3.631159 1.54759,62.410224 l -0.0725,60.24621 -0.83062,0.86697 c -0.45684,0.47683 -1.28234,0.99246 -1.83444,1.14583 -0.62865,0.17464 -11.04973,0.27945 -27.88234,0.28043 l -26.87852,0.002 -1.672375,1.27185 c -4.05524,3.08392 -11.40046,7.25707 -17.60595,10.00261 -9.12592,4.03764 -19.52182,6.87238 -29.55242,8.05832 -4.65381,0.55023 -14.78621,0.76139 -19.19111,0.39995 z m 117.899055,-82.5102 c 0.0568,-43.600999 -5.7e-4,-54.77967 -0.28223,-54.95846 -0.40781,-0.258936 -130.325855,-0.320207 -130.999305,-0.06178 -0.40494,0.155392 -0.44641,5.250104 -0.44641,54.84519 0,30.07063 0.0849,54.75882 0.18874,54.86262 0.10381,0.10381 29.72656,0.15673 65.82834,0.1176 l 65.639585,-0.0711 z m -78.952385,30.1835 c -7.05468,-1.46976 -11.08677,-5.22223 -12.89126,-11.99726 -0.38109,-1.43079 -0.49143,-3.04544 -0.50145,-7.33778 l -0.0128,-5.50334 h 28.36333 28.363335 l -0.008,5.50334 c -0.008,6.16268 -0.26489,7.6256 -1.96949,11.23484 -1.77213,3.75221 -5.28206,6.49693 -10.01741,7.83347 -1.64939,0.46554 -3.22948,0.52438 -15.663325,0.58334 -10.74675,0.051 -14.23775,-0.0196 -15.66334,-0.31661 z m -60.39556,-31.41415 c 0,-41.066477 -0.0776,-53.361215 -0.33867,-53.622231 -0.48655,-0.486551 -22.825005,-0.486551 -23.311557,0 -0.260705,0.260706 -0.338666,11.197639 -0.338666,47.510711 0,44.57348 0.02721,47.19577 0.493889,47.60286 0.773503,0.67473 22.447854,11.78236 23.001114,11.78757 0.46864,0.004 0.49389,-2.71905 0.49389,-53.27891 z m -0.22462,-63.415343 c 0.79724,-6.702849 1.37258,-8.927036 3.08209,-11.91494 l 0.9041,-1.580216 -1.49551,0.177123 c -1.81727,0.215228 -4.59864,1.475364 -6.02966,2.731818 -2.11683,1.8586 -3.43464,5.058311 -3.827569,9.293533 C 3.998949,57.16069 3.945815,58.476371 4.01884,58.597334 4.09187,58.7183 5.760465,58.7818 7.726835,58.738445 l 3.57523,-0.07882 z m 15.36793,-1.514656 c 0.44272,-4.248666 1.05149,-6.616133 2.38261,-9.265816 0.60541,-1.205103 1.10075,-2.306004 1.10075,-2.446449 0,-0.459119 -2.62687,0.09103 -4.40279,0.922088 -0.95405,0.446453 -2.23978,1.268101 -2.85718,1.825885 -1.24613,1.125804 -2.66992,3.599657 -3.18431,5.532772 -0.39593,1.487949 -0.87547,6.220156 -0.66485,6.560945 0.0803,0.129918 1.75373,0.200744 3.71874,0.157389 l 3.57275,-0.07882 z"
           id="path1998"
           sodipodiNodetypes="cssssssssssscsscsccssscssccsssccscsssccscscccccsscccscssscssscssssscssssssssscs" />
        <path
           style="fill:#5c8da7;stroke-width:0.282222"
           d="m 33.176975,204.12248 c -7.85984,-0.64495 -16.91964,-2.50948 -24.55334,-5.05317 -13.466587,-4.4873 -27.073941,-12.65571 -37.102367,-22.27232 -9.381841,-8.99658 -15.949067,-17.81888 -21.479107,-28.85466 -5.032511,-10.04292 -8.224178,-20.52836 -9.866784,-32.41493 -0.623537,-4.51217 -0.85969,-16.167151 -0.429987,-21.221461 2.090161,-24.585182 12.781181,-47.16505 30.481452,-64.378064 C -13.741233,14.337282 6.612455,4.6634107 29.225865,1.8863339 c 6.19217,-0.7604402 18.04619,-0.6909356 24.27111,0.1423106 26.95543,3.6081602 50.054515,16.6389655 66.868135,37.7220865 3.91563,4.90993 9.2604,13.118448 8.91044,13.684696 -0.11601,0.187692 -6.6641,0.284988 -19.13912,0.284379 l -18.962785,-8.47e-4 -0.47802,-2.464074 c -0.60096,-3.097872 -2.47231,-6.949432 -4.45025,-9.159461 -2.70181,-3.018835 -6.41755,-5.008183 -11.33459,-6.068359 -2.19116,-0.472443 -4.44575,-0.509668 -30.86826,-0.509668 -30.95311,0 -30.56147,-0.01772 -34.97188,1.582886 -6.917178,2.510361 -11.36541,8.335092 -12.330139,16.145674 -0.156873,1.270071 -0.373094,3.007719 -0.480491,3.861441 l -0.195267,1.552223 -6.773334,0.141111 c -7.522989,0.156729 -7.835734,0.232195 -8.724576,2.10529 -0.403645,0.850621 -0.447647,6.018542 -0.447647,52.576188 v 51.63283 l 0.639093,0.94836 c 0.798652,1.18511 1.112113,1.35942 18.943778,10.53395 l 14.643983,7.53444 42.78824,0.005 c 23.53354,0.003 43.034445,0.10232 43.335345,0.22182 0.47409,0.1883 0.32383,0.38222 -1.126255,1.45346 -4.32417,3.19444 -11.33529,7.15921 -17.42287,9.85259 -9.12592,4.03764 -19.52182,6.87238 -29.55242,8.05832 -4.65381,0.55023 -14.78621,0.76139 -19.19111,0.39995 z"
           id="path1996" />
        <path
           style="fill:#305e7c;stroke-width:0.287592"
           d="m 34.094199,204.09613 c -4.90274,-0.2941 -5.851578,-0.31957 -13.836339,-1.79966 C 13.133291,200.97583 4.8525671,198.07041 0.16057245,195.84612 -2.8249008,190.4424 -10.10013,177.69478 -14.474916,169.25443 l 29.942445,14.77436 42.85689,0.14654 c 39.43972,0.13484 42.815151,0.18416 42.333341,0.61852 -1.056251,0.95222 -5.694201,4.03952 -8.990231,5.98443 -11.34385,6.69377 -24.80609,11.26496 -37.95889,12.88922 -4.49801,0.55547 -15.597035,0.66962 -19.61444,0.42863 z"
           id="path1994"
           sodipodiNodetypes="sscccsssss" />
      </g>
      <g
         aria-label="S"
         transform="scale(1.0330982,0.96796221)"
         id="text2479"
         style="font-weight:bold;font-size:141.652px;line-height:1.25;font-family:Oswald;-inkscape-font-specification:'Oswald, Bold';letter-spacing:0px;word-spacing:0px;fill:#f49523;stroke-width:0.737771">
        <path
           d="m -480.05316,31.80206 q 0,4.426625 0.27666,8.645752 0.27667,4.149961 1.24499,7.469929 1.03749,3.319969 2.90497,5.394949 1.93665,2.074981 5.18745,2.282479 7.46993,0 7.46993,-9.54491 0,-13.00321 -14.73236,-26.006421 l -7.81576,-6.639937 q -3.31997,-2.76664 -6.84743,-5.8791108 -3.52747,-3.1816366 -6.43244,-7.26243131 -2.90497,-4.14996069 -4.84162,-9.54490969 -1.86748,-5.3949492 -1.86748,-12.6573802 0,-7.539095 2.55914,-13.625704 2.55914,-6.086609 7.1241,-10.305736 4.63412,-4.288293 11.06656,-6.570771 6.5016,-2.282479 14.38653,-2.282479 6.57077,0 12.31155,2.559143 5.80994,2.559142 10.09824,6.916601 4.35746,4.357459 6.84743,10.23657 2.48998,5.809945 2.48998,12.380716 l -0.0692,2.974138 -26.00642,3.596633 q 0,-0.414996 0,-1.03749 0.0692,-0.622494 0.0692,-1.314154 0.0692,-0.760827 0.0692,-1.452487 0.0692,-0.69166 0.0692,-1.244988 0,-2.282478 -0.34583,-4.772455 -0.34583,-2.559142 -1.24499,-4.634122 -0.82999,-2.144147 -2.42081,-3.527467 -1.52165,-1.38332 -3.94246,-1.38332 -2.07498,0 -3.6658,0.899158 -1.52165,0.899158 -2.55914,2.42081 -1.03749,1.521652 -1.59082,3.527467 -0.48416,1.936648 -0.48416,4.080795 0,3.11247 0.69166,5.740779 0.69166,2.559142 2.07498,4.910786 1.38332,2.351645 3.31997,4.4957912 2.00581,2.1441464 4.56495,4.2882928 l 9.19908,7.8849253 q 4.97996,4.3574588 9.06075,8.9224157 4.14996,4.564957 7.1241,9.683242 2.97414,5.118284 4.56496,10.997396 1.65998,5.809945 1.65998,12.726546 0,6.501605 -2.55914,11.96572 -2.48998,5.464115 -6.84744,9.406577 -4.28829,3.942463 -10.1674,6.155776 -5.80995,2.213312 -12.44988,2.213312 -8.78409,0 -15.21653,-3.112471 -6.43243,-3.11247 -10.78989,-8.369087 -4.2883,-5.325783 -6.50161,-12.173218 -2.21331,-6.916601 -2.55914,-14.524863 z"
           id="path871" />
      </g>
      <g
         aria-label="W"
         transform="scale(1.0056781,0.99435395)"
         id="text2479-6"
         style="font-weight:bold;font-size:145.071px;line-height:1.25;font-family:Oswald;-inkscape-font-specification:'Oswald, Bold';letter-spacing:0px;word-spacing:0px;fill:#f49523;stroke-width:0.755582">
        <path
           d="m -445.9168,-54.090165 h 21.95899 l 7.93357,84.435855 10.90866,-84.435855 h 18.91306 l 10.69616,83.940007 8.28775,-83.940007 h 22.02982 l -17.85053,127.503808 h -22.02983 l -10.69615,-83.444159 -10.48365,83.444159 h -22.02982 z"
           id="path892" />
      </g>
      <g
         aria-label="360"
         transform="scale(0.99303949,1.0070093)"
         id="text12214"
         style="font-size:140.163px;line-height:1.25;font-family:Oswald;-inkscape-font-specification:'Oswald, Normal';letter-spacing:0px;word-spacing:0px;fill:#5c8da7;stroke-width:0.350408">
        <path
           d="m -306.09117,72.145338 q -8.21267,0 -14.02998,-2.532241 -5.81731,-2.532242 -9.51302,-6.843897 -3.6957,-4.311654 -5.40668,-10.128966 -1.71097,-5.817312 -1.71097,-12.387452 v -4.380094 h 17.52037 q 0,6.570141 0.82127,10.813356 0.82127,4.243216 2.4638,6.707019 1.64254,2.463802 4.10634,3.421948 2.4638,0.958145 5.74887,0.958145 3.28508,0 5.74888,-0.958145 2.4638,-0.958146 4.10634,-3.421948 1.64253,-2.463803 2.4638,-6.707019 0.82127,-4.243215 0.82127,-10.813356 0,-4.927605 -0.88971,-8.965504 -0.88971,-4.037899 -2.94288,-6.912335 -2.05317,-2.874436 -5.40667,-4.448532 -3.35351,-1.574097 -8.28112,-1.574097 V -3.5481539 q 4.92761,0 8.28112,-0.8897065 3.3535,-0.8897065 5.40667,-2.9428754 2.05317,-2.0531688 2.94288,-5.4066782 0.88971,-3.353509 0.88971,-8.281114 0,-4.927605 -0.82127,-8.281115 -0.82127,-3.353509 -2.4638,-5.406678 -1.64254,-2.053168 -4.10634,-2.942875 -2.4638,-0.889706 -5.74888,-0.889706 -3.28507,0 -5.74887,0.958145 -2.4638,0.958145 -4.10634,3.421948 -1.64253,2.463803 -2.4638,6.707018 -0.82127,4.243216 -0.82127,10.813356 h -17.52037 v -4.380093 q 0,-6.570141 1.71097,-12.387452 1.71098,-5.817312 5.40668,-10.128967 3.69571,-4.311654 9.51302,-6.843896 5.81731,-2.532242 14.02998,-2.532242 8.21268,0 14.02999,2.532242 5.81731,2.532242 9.51302,6.843896 3.6957,4.311655 5.40668,10.128967 1.71097,5.817311 1.71097,12.387452 0,6.57014 -1.77941,11.2239896 -1.71098,4.5854105 -4.3801,7.6651638 -2.60068,3.07975326 -5.68043,4.8591663 -3.01131,1.710974 -5.68043,2.5322416 2.66912,0.8897065 5.68043,2.8744364 3.07975,1.9162913 5.68043,5.4751173 2.66912,3.490387 4.3801,8.965504 1.77941,5.475117 1.77941,13.345597 0,8.212676 -1.71097,14.919694 -1.71098,6.707018 -5.40668,11.429307 -3.69571,4.722288 -9.51302,7.322969 -5.81731,2.60068 -14.02999,2.60068 z"
           id="path846" />
        <path
           d="m -229.43952,72.145338 q -6.57015,0 -12.18214,-2.669119 -5.61199,-2.66912 -9.71833,-7.802042 -4.10634,-5.132922 -6.43326,-12.729647 -2.32693,-7.596725 -2.32693,-17.451935 V -7.9282475 q 0,-9.8552105 1.71097,-18.1363245 1.71098,-8.281115 5.40668,-14.235305 3.69571,-5.954189 9.51302,-9.307698 5.81731,-3.35351 14.02999,-3.35351 6.57014,0 12.18213,1.916291 5.612,1.916291 9.71833,5.817312 4.10634,3.901021 6.43327,9.92365 2.32692,6.022628 2.32692,14.235304 h -17.52037 q 0,-4.927605 -0.82127,-8.281115 -0.75283,-3.353509 -2.39537,-5.406678 -1.64253,-2.053168 -4.10633,-2.942875 -2.46381,-0.889706 -5.81731,-0.889706 -13.14029,0 -13.14029,26.280561 V 5.2120333 q 0.75283,-1.3003403 2.05317,-2.8059975 1.36878,-1.5740961 3.49039,-2.87443638 2.12161,-1.36877922 5.06448,-2.19004682 2.94288,-0.8897065 6.91234,-0.8897065 8.21267,0 13.3456,3.01131436 5.13292,3.01131434 8.00736,7.93891964 2.87443,4.9276049 3.90102,11.2239899 1.02658,6.296384 1.02658,12.866525 0,8.212675 -1.71097,15.604083 -1.71098,7.391408 -5.40668,12.934964 -3.69571,5.543556 -9.51302,8.828626 -5.81731,3.28507 -14.02998,3.28507 z m -13.14029,-36.27265 q 0,4.927606 0.82127,8.965504 0.82127,4.037899 2.4638,6.912336 1.64254,2.874436 4.10634,4.448532 2.46381,1.574096 5.74888,1.574096 3.28507,0 5.74887,-1.574096 2.4638,-1.574096 4.10634,-4.448532 1.64253,-2.874437 2.4638,-6.912336 0.82127,-4.037898 0.82127,-8.965504 0,-4.927605 -0.20532,-9.649893 -0.20532,-4.722289 -1.43722,-8.417993 -1.2319,-3.695704 -3.90102,-5.954189 -2.66912,-2.2584862 -7.59672,-2.2584862 -2.66912,0 -4.79073,0.8897062 -2.05317,0.821268 -3.69571,2.190047 -1.64253,1.30034 -2.80599,2.874437 -1.16347,1.505657 -1.84786,2.805997 z"
           id="path848" />
        <path
           d="m -150.59783,72.145338 q -5.88576,0 -11.42931,-1.98473 -5.54356,-2.053169 -9.85521,-6.433262 -4.24322,-4.380094 -6.8439,-11.22399 -2.53224,-6.912335 -2.53224,-16.630668 v -52.561123 q 0,-8.281114 1.64254,-14.166865 1.71097,-5.88575 4.38009,-9.923649 2.66912,-4.037899 6.02263,-6.433263 3.35351,-2.395363 6.77545,-3.695704 3.42195,-1.30034 6.50171,-1.642535 3.14819,-0.410634 5.33824,-0.410634 2.19004,0 5.2698,0.410634 3.14819,0.342195 6.57014,1.642535 3.42194,1.300341 6.77545,3.695704 3.35351,2.395364 6.02263,6.433263 2.66912,4.037899 4.31166,9.923649 1.71097,5.885751 1.71097,14.166865 v 52.561123 q 0,9.718333 -2.60068,16.630668 -2.53224,6.843896 -6.8439,11.22399 -4.24321,4.380093 -9.78677,6.433262 -5.54355,1.98473 -11.4293,1.98473 z m 0,-14.372182 q 2.87443,0 4.99604,-1.095023 2.12161,-1.095024 3.55883,-2.874437 1.43721,-1.779413 2.32692,-4.106337 0.95815,-2.326925 1.43722,-4.722289 0.47907,-2.463802 0.61595,-4.790727 0.20532,-2.395364 0.20532,-4.311655 v -52.561123 q 0,-1.98473 -0.13688,-4.380093 -0.0684,-2.395364 -0.54751,-4.790728 -0.41064,-2.463802 -1.2319,-4.722288 -0.82127,-2.326925 -2.32693,-4.106338 -1.43722,-1.779413 -3.62726,-2.805997 -2.19005,-1.095023 -5.2698,-1.095023 -3.07976,0 -5.2698,1.095023 -2.19005,1.026584 -3.69571,2.805997 -1.43722,1.779413 -2.25848,4.106338 -0.82127,2.258486 -1.30034,4.722288 -0.41064,2.395364 -0.54752,4.790728 -0.0684,2.395363 -0.0684,4.380093 v 52.561123 q 0,1.916291 0.13688,4.311655 0.20532,2.326925 0.68439,4.790727 0.47907,2.395364 1.36878,4.722289 0.95815,2.326924 2.39537,4.106337 1.43721,1.779413 3.55882,2.874437 2.12161,1.095023 4.99605,1.095023 z"
           id="path850" />
      </g>
    </g>
  </g>
</svg>
